<svg xmlns="http://www.w3.org/2000/svg" viewBox="0 0 842 596" width="100%" height="100%">
  <path fill="#361712" d="M2303 3863 c3 -1782 -2 -1650 72 -1792 79 -149 189 -227 405 -285 l95 -26 668 0 667 0 0 869 0 868 -67 -4 c-85 -5 -127 15 -160 77 -23 43 -23 48 -23 397 l0 353 -288 0 -289 0 -24 26 c-34 36 -35 123 -1 156 22 23 26 23 312 26 l290 3 0 464 0 465 -830 0 -830 0 3 -1597z"/>
  <path fill="#c81111" d="M5310 5449 c-246 -20 -474 -77 -582 -144 -111 -70 -257 -291 -293 -445 -13 -56 -15 -264 -15 -1582 l0 -1518 875 0 875 0 0 1300 0 1300 -332 2 -333 3 -18 38 c-22 44 -16 103 15 142 l19 25 325 0 324 0 0 438 0 439 -122 6 c-162 9 -607 6 -738 -4z"/>
</svg>
