<svg xmlns="http://www.w3.org/2000/svg" viewBox="0 0 46.440219 44.647983">
<g transform="translate(-27.599781,65.640000) rotate(-360.00) scale(0.011429,-0.011429)" stroke="none">
<path fill="#361712" d="M2415 4085 c0 -1838 -3 -1753 69 -1898 20 -42 64 -106 97 -141 67
-73 158 -122 322 -173 l95 -30 711 -3 712 -3 0 922 0 921 -77 -3 c-84 -3 -114
8 -148 54 -21 28 -22 44 -27 420 l-6 390 -294 2 c-161 2 -304 5 -317 8 -32 8
-47 40 -47 99 0 39 5 53 28 72 27 24 31 24 332 24 l304 0 0 499 0 499 -877 0
-877 0 0 -1659z"/>
<path fill="#c81111" d="M5807 5737 c-355 -13 -644 -63 -793 -138 -80 -39 -116 -70 -185 -158
-106 -134 -183 -314 -190 -443 -1 -26 -1 -748 0 -1604 l2 -1556 919 0 919 0 0
1370 0 1370 -342 0 c-400 0 -383 -5 -383 105 0 54 4 68 26 90 l26 26 336 0
337 0 0 460 0 461 -113 6 c-161 9 -455 15 -559 11z"/>
</g>
</svg>
